<?xml version="1.0" standalone="yes"?>
<svg xmlns="http://www.w3.org/2000/svg" width="600" height="600">
<path style="fill:#ffffff; stroke:none;" d="M0 0L0 600L276 600C271.533 598.121 265.826 598.368 261 597.718C251.955 596.499 242.823 594.589 234 592.265C204.511 584.501 176.314 572.373 151 555.255C75.2157 504.006 23.3161 409.972 32.1698 317C34.4911 292.623 40.9647 268.56 50.4244 246C64.4613 212.523 83.4707 181.82 104.025 152C115.509 135.34 130.96 118.633 139 100C145.679 105.123 150.345 113.296 155.373 120L183.127 157C188.162 163.714 193.412 174.147 201 178C222.439 139.346 248.052 102.527 271.424 65C280.589 50.2845 291.658 35.7066 299 20L301 20C308.342 35.7065 319.411 50.2845 328.576 65C351.948 102.526 377.561 139.346 399 178C406.588 174.147 411.838 163.714 416.873 157L444.627 120C449.655 113.296 454.321 105.123 461 100C465.347 110.076 472.776 119.119 479.14 128C488.132 140.548 496.982 153.23 505.656 166C530.917 203.189 552.693 244.025 563.116 288C568.362 310.135 569.428 333.41 567.169 356C557.534 452.361 497.729 537.306 409 577.306C383.236 588.92 352.539 598.921 324 599C330.919 601.903 341.52 600 349 600L405 600L600 600L600 0L0 0z"/>
<path style="fill:#000000; stroke:none;" d="M299 20C276.68 53.7305 255.96 88.6656 234.576 123C227.511 134.345 220.445 145.693 213.319 157C209.076 163.732 203.821 170.547 201 178C194.321 172.877 189.655 164.704 184.627 158L156.873 121C151.838 114.286 146.588 103.853 139 100C125.034 122.737 108.53 143.847 93.6705 166C66.7532 206.128 41.7432 251.624 34.2747 300C29.2684 332.427 31.7176 366.217 39.6265 398C47.8816 431.174 62.5643 462.205 82.4275 490C99.7878 514.293 121.753 535.123 146 552.421C224.138 608.166 332.033 615.365 418 573.742C477.795 544.79 525.544 492.723 549.797 431C563.901 395.107 570.552 355.565 567.911 317C564.174 262.442 536.192 210.519 506.329 166C491.47 143.847 474.966 122.737 461 100C453.412 103.853 448.162 114.286 443.127 121L415.373 158C410.345 164.704 405.679 172.877 399 178C396.179 170.547 390.924 163.732 386.681 157C379.555 145.693 372.489 134.345 365.424 123C344.04 88.6657 323.32 53.7305 301 20L299 20z"/>
<path style="fill:#ffffff; stroke:none;" d="M299 281C289.634 294.298 277.474 306.102 267.424 319C246.022 346.469 226.46 375.895 212.72 408C202.223 432.526 195.528 460.534 206.427 486C228.399 537.337 297.33 550.268 345 531.2C370.742 520.903 394.853 497.577 398.711 469C401.288 449.918 396.252 430.768 389.681 413C376.03 376.084 352.377 342.258 327.576 312C319.048 301.595 308.704 291.936 301 281L299 281z"/>
</svg>
